<svg width="17" height="11" viewBox="0 0 17 11" fill="none" xmlns="http://www.w3.org/2000/svg">
<path d="M9.0279 9.92855C8.9163 10.0402 8.78795 10.096 8.64286 10.096C8.49777 10.096 8.36942 10.0402 8.25781 9.92855L0.456473 2.12721C0.344866 2.01561 0.289063 1.88726 0.289063 1.74217C0.289063 1.59708 0.344866 1.46873 0.456473 1.35712L1.29353 0.520071C1.40513 0.408463 1.53348 0.35266 1.67857 0.35266C1.82366 0.35266 1.95201 0.408463 2.06362 0.520071L8.64286 7.09931L15.2221 0.520071C15.3337 0.408463 15.4621 0.35266 15.6071 0.35266C15.7522 0.35266 15.8806 0.408463 15.9922 0.520071L16.8292 1.35712C16.9408 1.46873 16.9967 1.59708 16.9967 1.74217C16.9967 1.88726 16.9408 2.01561 16.8292 2.12721L9.0279 9.92855Z" fill="white"/>
</svg>
