<svg width="14" height="8" viewBox="0 0 14 8" fill="none" xmlns="http://www.w3.org/2000/svg">
<path d="M6.97768 0.165178C7.06696 0.0758927 7.16964 0.03125 7.28571 0.03125C7.40179 0.03125 7.50446 0.0758927 7.59375 0.165178L13.8348 6.40625C13.9241 6.49554 13.9687 6.59821 13.9687 6.71429C13.9687 6.83036 13.9241 6.93304 13.8348 7.02232L13.1652 7.69196C13.0759 7.78125 12.9732 7.82589 12.8571 7.82589C12.7411 7.82589 12.6384 7.78125 12.5491 7.69196L7.28571 2.42857L2.02232 7.69196C1.93304 7.78125 1.83036 7.82589 1.71428 7.82589C1.59821 7.82589 1.49553 7.78125 1.40625 7.69196L0.736606 7.02232C0.64732 6.93304 0.602677 6.83036 0.602677 6.71429C0.602677 6.59821 0.64732 6.49554 0.736606 6.40625L6.97768 0.165178Z" fill="white"/>
</svg>
